# xmcd
#
# Track frame offsets:
#	150
#	17269
#	38294
#	56914
#	78381
#	99345
#	118742
#	134191
#	152668
#	169349
#	182246
#	196645
#	209083
#	228994
#	252330
#	266972
#
# Disc length: 3717 seconds
#
# Revision: 0
# Processed by: cddbd v1.5.1PL0 Copyright (c) Steve Scherf et al.
# Submitted via: dBpowerAMP V4.0
#
DISCID=de0e8310
DTITLE=Gean and Állam - Gean and Allam
DYEAR=1900
DGENRE=Country
TTITLE0=Arena da Paixão
TTITLE1=Quem será
TTITLE2=Pra solidão eu dei tchau
TTITLE3=Meu anjo bom
TTITLE4=Um a história de amor
TTITLE5=Esperando por você
TTITLE6=Promessas de Amor
TTITLE7=Está escrito em meu olhar
TTITLE8=Te amo e não posso negar
TTITLE9=Feitiço de menina
TTITLE10=Paixão de boléia
TTITLE11=Parada torta
TTITLE12=Sobrenome solidão
TTITLE13=Tudo de bom
TTITLE14=Apenas um toque
TTITLE15=No swing da morena
EXTD=
EXTT0=
EXTT1=
EXTT2=
EXTT3=
EXTT4=
EXTT5=
EXTT6=
EXTT7=
EXTT8=
EXTT9=
EXTT10=
EXTT11=
EXTT12=
EXTT13=
EXTT14=
EXTT15=
PLAYORDER=
